<mxfile host="app.diagrams.net" agent="Mozilla/5.0 (Windows NT 10.0; Win64; x64) AppleWebKit/537.36 (KHTML, like Gecko) Chrome/138.0.0.0 Safari/537.36" version="26.2.14">
  <diagram name="Página-1" id="rdf6AsXrXPSVANjdMIC9">
    <mxGraphModel dx="3996" dy="1651" grid="1" gridSize="10" guides="1" tooltips="1" connect="1" arrows="1" fold="1" page="1" pageScale="1" pageWidth="827" pageHeight="1169" math="0" shadow="0">
      <root>
        <mxCell id="0" />
        <mxCell id="1" parent="0" />
        <mxCell id="yMDlocSIDWEBlG2M7-yO-21" value="" style="rounded=0;whiteSpace=wrap;html=1;dashed=1;" vertex="1" parent="1">
          <mxGeometry x="-60" y="500" width="240" height="420" as="geometry" />
        </mxCell>
        <mxCell id="yMDlocSIDWEBlG2M7-yO-6" style="edgeStyle=orthogonalEdgeStyle;rounded=0;orthogonalLoop=1;jettySize=auto;html=1;" edge="1" parent="1" source="yMDlocSIDWEBlG2M7-yO-1" target="yMDlocSIDWEBlG2M7-yO-5">
          <mxGeometry relative="1" as="geometry" />
        </mxCell>
        <mxCell id="yMDlocSIDWEBlG2M7-yO-1" value="Regra A" style="whiteSpace=wrap;html=1;aspect=fixed;" vertex="1" parent="1">
          <mxGeometry x="340" y="250" width="80" height="80" as="geometry" />
        </mxCell>
        <mxCell id="yMDlocSIDWEBlG2M7-yO-7" style="edgeStyle=orthogonalEdgeStyle;rounded=0;orthogonalLoop=1;jettySize=auto;html=1;entryX=0;entryY=0.5;entryDx=0;entryDy=0;" edge="1" parent="1" source="yMDlocSIDWEBlG2M7-yO-2" target="yMDlocSIDWEBlG2M7-yO-5">
          <mxGeometry relative="1" as="geometry" />
        </mxCell>
        <mxCell id="yMDlocSIDWEBlG2M7-yO-2" value="Regra B" style="whiteSpace=wrap;html=1;aspect=fixed;" vertex="1" parent="1">
          <mxGeometry x="340" y="400" width="80" height="80" as="geometry" />
        </mxCell>
        <mxCell id="yMDlocSIDWEBlG2M7-yO-8" style="edgeStyle=orthogonalEdgeStyle;rounded=0;orthogonalLoop=1;jettySize=auto;html=1;" edge="1" parent="1" source="yMDlocSIDWEBlG2M7-yO-3">
          <mxGeometry relative="1" as="geometry">
            <mxPoint x="570" y="540" as="targetPoint" />
          </mxGeometry>
        </mxCell>
        <mxCell id="yMDlocSIDWEBlG2M7-yO-31" style="edgeStyle=orthogonalEdgeStyle;rounded=0;orthogonalLoop=1;jettySize=auto;html=1;" edge="1" parent="1" source="yMDlocSIDWEBlG2M7-yO-3" target="yMDlocSIDWEBlG2M7-yO-32">
          <mxGeometry relative="1" as="geometry">
            <mxPoint x="440" y="880" as="targetPoint" />
          </mxGeometry>
        </mxCell>
        <mxCell id="yMDlocSIDWEBlG2M7-yO-3" value="Regra Movimento Concessão" style="whiteSpace=wrap;html=1;aspect=fixed;" vertex="1" parent="1">
          <mxGeometry x="400" y="570" width="80" height="80" as="geometry" />
        </mxCell>
        <mxCell id="yMDlocSIDWEBlG2M7-yO-5" value="API de movimento" style="ellipse;whiteSpace=wrap;html=1;aspect=fixed;" vertex="1" parent="1">
          <mxGeometry x="530" y="450" width="90" height="90" as="geometry" />
        </mxCell>
        <mxCell id="yMDlocSIDWEBlG2M7-yO-15" style="edgeStyle=orthogonalEdgeStyle;rounded=0;orthogonalLoop=1;jettySize=auto;html=1;entryX=0;entryY=1;entryDx=0;entryDy=0;" edge="1" parent="1" source="yMDlocSIDWEBlG2M7-yO-9" target="yMDlocSIDWEBlG2M7-yO-13">
          <mxGeometry relative="1" as="geometry" />
        </mxCell>
        <mxCell id="yMDlocSIDWEBlG2M7-yO-9" value="Configurações de Concessão" style="whiteSpace=wrap;html=1;aspect=fixed;" vertex="1" parent="1">
          <mxGeometry x="90" y="630" width="80" height="80" as="geometry" />
        </mxCell>
        <mxCell id="yMDlocSIDWEBlG2M7-yO-16" style="edgeStyle=orthogonalEdgeStyle;rounded=0;orthogonalLoop=1;jettySize=auto;html=1;entryX=0;entryY=0.5;entryDx=0;entryDy=0;" edge="1" parent="1" source="yMDlocSIDWEBlG2M7-yO-10" target="yMDlocSIDWEBlG2M7-yO-13">
          <mxGeometry relative="1" as="geometry" />
        </mxCell>
        <mxCell id="yMDlocSIDWEBlG2M7-yO-10" value="Input Concessão" style="whiteSpace=wrap;html=1;aspect=fixed;" vertex="1" parent="1">
          <mxGeometry x="90" y="520" width="80" height="80" as="geometry" />
        </mxCell>
        <mxCell id="yMDlocSIDWEBlG2M7-yO-14" style="edgeStyle=orthogonalEdgeStyle;rounded=0;orthogonalLoop=1;jettySize=auto;html=1;entryX=0;entryY=0.5;entryDx=0;entryDy=0;" edge="1" parent="1" source="yMDlocSIDWEBlG2M7-yO-13" target="yMDlocSIDWEBlG2M7-yO-3">
          <mxGeometry relative="1" as="geometry" />
        </mxCell>
        <mxCell id="yMDlocSIDWEBlG2M7-yO-13" value="Bundle Movimento Concessão" style="ellipse;whiteSpace=wrap;html=1;aspect=fixed;" vertex="1" parent="1">
          <mxGeometry x="220" y="570" width="80" height="80" as="geometry" />
        </mxCell>
        <mxCell id="yMDlocSIDWEBlG2M7-yO-18" style="edgeStyle=orthogonalEdgeStyle;rounded=0;orthogonalLoop=1;jettySize=auto;html=1;entryX=0.5;entryY=1;entryDx=0;entryDy=0;" edge="1" parent="1" source="yMDlocSIDWEBlG2M7-yO-17" target="yMDlocSIDWEBlG2M7-yO-13">
          <mxGeometry relative="1" as="geometry" />
        </mxCell>
        <mxCell id="yMDlocSIDWEBlG2M7-yO-17" value="Configurações de Momentos" style="whiteSpace=wrap;html=1;aspect=fixed;" vertex="1" parent="1">
          <mxGeometry x="90" y="730" width="80" height="80" as="geometry" />
        </mxCell>
        <mxCell id="yMDlocSIDWEBlG2M7-yO-19" value="API de Concessão" style="ellipse;whiteSpace=wrap;html=1;aspect=fixed;" vertex="1" parent="1">
          <mxGeometry x="-50" y="670" width="80" height="80" as="geometry" />
        </mxCell>
        <mxCell id="yMDlocSIDWEBlG2M7-yO-22" value="DB" style="shape=cylinder3;whiteSpace=wrap;html=1;boundedLbl=1;backgroundOutline=1;size=15;" vertex="1" parent="1">
          <mxGeometry x="690" y="560" width="60" height="80" as="geometry" />
        </mxCell>
        <mxCell id="yMDlocSIDWEBlG2M7-yO-23" style="edgeStyle=orthogonalEdgeStyle;rounded=0;orthogonalLoop=1;jettySize=auto;html=1;entryX=0;entryY=0.5;entryDx=0;entryDy=0;entryPerimeter=0;" edge="1" parent="1" source="yMDlocSIDWEBlG2M7-yO-5" target="yMDlocSIDWEBlG2M7-yO-22">
          <mxGeometry relative="1" as="geometry" />
        </mxCell>
        <mxCell id="yMDlocSIDWEBlG2M7-yO-24" style="edgeStyle=orthogonalEdgeStyle;rounded=0;orthogonalLoop=1;jettySize=auto;html=1;exitX=0.5;exitY=1;exitDx=0;exitDy=0;exitPerimeter=0;" edge="1" parent="1" source="yMDlocSIDWEBlG2M7-yO-22" target="yMDlocSIDWEBlG2M7-yO-22">
          <mxGeometry relative="1" as="geometry" />
        </mxCell>
        <mxCell id="yMDlocSIDWEBlG2M7-yO-25" value="" style="endArrow=none;dashed=1;html=1;dashPattern=1 3;strokeWidth=2;rounded=0;entryX=0.5;entryY=1;entryDx=0;entryDy=0;exitX=0.5;exitY=0;exitDx=0;exitDy=0;" edge="1" parent="1" source="yMDlocSIDWEBlG2M7-yO-26" target="yMDlocSIDWEBlG2M7-yO-3">
          <mxGeometry width="50" height="50" relative="1" as="geometry">
            <mxPoint x="550" y="840" as="sourcePoint" />
            <mxPoint x="464" y="710" as="targetPoint" />
          </mxGeometry>
        </mxCell>
        <mxCell id="yMDlocSIDWEBlG2M7-yO-26" value="" style="swimlane;startSize=0;" vertex="1" collapsed="1" parent="1">
          <mxGeometry x="630" y="950" width="50" height="40" as="geometry">
            <mxRectangle x="400" y="840" width="530" height="490" as="alternateBounds" />
          </mxGeometry>
        </mxCell>
        <mxCell id="yMDlocSIDWEBlG2M7-yO-27" value="" style="whiteSpace=wrap;html=1;aspect=fixed;" vertex="1" parent="yMDlocSIDWEBlG2M7-yO-26">
          <mxGeometry x="50" y="40" width="80" height="80" as="geometry" />
        </mxCell>
        <mxCell id="yMDlocSIDWEBlG2M7-yO-28" value="" style="whiteSpace=wrap;html=1;aspect=fixed;" vertex="1" parent="yMDlocSIDWEBlG2M7-yO-26">
          <mxGeometry x="180" y="40" width="80" height="80" as="geometry" />
        </mxCell>
        <mxCell id="yMDlocSIDWEBlG2M7-yO-29" value="Configurações de Movimento de Concessão" style="whiteSpace=wrap;html=1;aspect=fixed;" vertex="1" parent="1">
          <mxGeometry x="90" y="830" width="80" height="80" as="geometry" />
        </mxCell>
        <mxCell id="yMDlocSIDWEBlG2M7-yO-30" style="edgeStyle=orthogonalEdgeStyle;rounded=0;orthogonalLoop=1;jettySize=auto;html=1;entryX=1;entryY=1;entryDx=0;entryDy=0;" edge="1" parent="1" source="yMDlocSIDWEBlG2M7-yO-29" target="yMDlocSIDWEBlG2M7-yO-13">
          <mxGeometry relative="1" as="geometry">
            <mxPoint x="270" y="670" as="targetPoint" />
          </mxGeometry>
        </mxCell>
        <mxCell id="yMDlocSIDWEBlG2M7-yO-32" value="API de mudança de classe&amp;nbsp;" style="ellipse;whiteSpace=wrap;html=1;aspect=fixed;" vertex="1" parent="1">
          <mxGeometry x="400" y="810" width="80" height="80" as="geometry" />
        </mxCell>
        <mxCell id="yMDlocSIDWEBlG2M7-yO-34" value="" style="sketch=0;outlineConnect=0;fontColor=#232F3E;gradientColor=none;fillColor=#232F3D;strokeColor=none;dashed=0;verticalLabelPosition=bottom;verticalAlign=top;align=center;html=1;fontSize=12;fontStyle=0;aspect=fixed;pointerEvents=1;shape=mxgraph.aws4.user;" vertex="1" parent="1">
          <mxGeometry x="630" y="1010" width="78" height="78" as="geometry" />
        </mxCell>
      </root>
    </mxGraphModel>
  </diagram>
</mxfile>
